<svg>
  <g id="australian-icon">
    <polygon id="triangle" points="564.1,488.98 0,488.98 282.05,0 282.05,0 " transform="matrix(0.042926,0,0,0.04907615,0,0.00271552)" fill="transparent"/>
    <g id="name" transform="matrix(0.042926,0,0,0.04907615,0,0.00271552)">
      <g id="g4585">
        <path id="path4587" d="m 249.53,206.761 v 19.6 h -16.52 v 85.96 h -20.86 v -85.96 h -16.38 v -19.6 h 53.76 z"/>
        <path id="path4589" d="m 273.025,206.761 v 41.3 h 21.14 v -41.3 h 20.859 v 105.56 h -20.859 v -44.66 h -21.14 v 44.66 h -20.86 v -105.56 h 20.86 z"/>
        <path id="path4591" d="m 364.996,206.761 v 19.6 h -21.141 v 22.96 h 18.621 v 19.6 h -18.621 v 23.8 h 21.42 v 19.601 h -42.279 v -105.56 h 42 z"/>
      </g>
      <g id="g4593">
        <path id="path4595" d="m 168.68,382.521 v 8.26 c 0,22.4 -5.46,52.22 -33.88,52.22 -28.42,0 -37.66,-30.52 -37.66,-53.899 0,-24.36 7.84,-55.02 37.66,-55.02 16.1,0 26.6,10.08 31.08,25.06 l -20.3,7.84 c -0.98,-5.319 -2.66,-13.58 -10.64,-13.58 -14.14,-0.84 -15.54,25.2 -15.54,35.14 0,10.921 0.7,35.141 16.1,35.141 10.64,0 12.32,-14.28 12.32,-21.561 h -13.3 v -19.6 h 34.16 z"/>
        <path id="path4597" d="M 172.879,441.32 V 335.76 h 21 c 13.3,0 37.1,1.4 37.1,30.239 0,11.62 -4.62,21.561 -14.979,27.3 l 18.34,48.021 h -21.98 l -18.34,-48.721 h -0.28 v 48.721 h -20.861 z m 20.86,-60.2 3.64,0.141 c 9.52,0 13.3,-6.44 13.3,-15.12 0,-7.56 -3.64,-13.721 -14.14,-13.16 h -2.8 v 28.139 z"/>
        <path id="path4599" d="m 282.189,335.761 v 19.6 h -21.14 v 22.96 h 18.62 v 19.6 h -18.62 v 23.8 h 21.42 v 19.601 h -42.28 v -105.56 h 42 z"/>
        <path id="path4601" d="m 330.188,335.761 v 19.6 h -21.139 v 22.96 h 18.619 v 19.6 h -18.619 v 23.8 h 21.42 v 19.601 h -42.28 v -105.56 h 41.999 z"/>
        <path id="path4603" d="m 356.207,335.761 26.04,63.7 0.28,-0.28 c -1.26,-5.04 -1.68,-10.5 -1.68,-15.961 v -47.459 h 20.859 v 105.56 h -19.74 l -25.76,-63.7 -0.279,0.28 0.979,10.64 0.14,4.341 v 48.439 h -20.859 v -105.56 h 20.02 z"/>
        <path id="path4605" d="m 452.947,359.561 c -4.199,-3.641 -9.38,-6.72 -15.119,-6.72 -6.44,0 -10.5,3.92 -10.5,10.36 0,17.359 31.779,18.339 31.779,46.898 0,18.761 -10.779,32.9 -30.38,32.9 -5.88,0 -13.16,-1.82 -17.92,-5.32 V 417.8 c 4.899,3.36 9.66,5.601 15.82,5.601 6.72,0 12.04,-4.48 12.04,-11.48 0,-8.12 -6.44,-11.2 -12.32,-15.399 -12.04,-8.12 -19.46,-15.96 -19.46,-31.359 0,-16.661 9.659,-31.08 27.58,-31.08 6.72,0 12.739,1.819 18.479,5.18 v 20.298 z"/>
      </g>
    </g>
    <path id="triangle-border" d="M 0.5476929,23.652069 11.958541,1.0621714 12.10728,0.76781266 23.666824,23.65202 H 0.5476929 l 0,4.9e-5 z M 1.1426044,23.259362 H 23.071783 L 12.10728,1.553031 1.1426044,23.259362 l 0,0 z"/>
  </g>
</svg>