<svg>
  <g id="english-wales-icon" transform="matrix(0.24163542,0,0,0.28337456,-144.1783,-40.013746)">
    <path id="path14" d="m 674.427,195.877 c 1.499,-9.205 -2.801,-18.412 -8.6,-23.808 -6.606,-5.709 -16.816,-8.607 -25.618,-6.313 -2.004,0.305 -3.207,1.199 -4.803,1.701 -6.815,3.104 -11.918,9.606 -14.018,16.817 -1.898,8.499 1.003,17.813 6.106,23.716 5,5.104 10.603,7.906 17.616,9.305 5.703,0.104 12.3,-0.599 17.308,-3.803 6.108,-4.011 10.603,-9.81 12.009,-17.615 z m -39.923,5.008 c -0.407,-0.202 -0.71,-0.805 -1.003,-0.805 -2.604,0.51 -5.806,0.402 -7.607,2.006 l -0.293,0.197 c -0.712,-0.397 -1.412,-1 -1.412,-1.693 -2.8,-4.311 -0.296,-7.512 -0.7,-11.615 l 1.908,-4.702 c 0.693,-1.806 2.799,-2.497 4.402,-2.903 0.195,-3.204 1.098,-6.205 2.188,-9.007 0.508,-0.598 1.413,-0.898 1.514,-1.703 0,-0.297 0.093,-0.497 0.093,-0.696 3.408,-1.503 7.813,-4.209 12.009,-2.811 2.208,0 3.203,1.408 5.212,1.408 l 2.199,-1.505 c 0.801,0.302 1.397,0.601 1.708,1.202 l 0,2.104 c -0.203,0.197 -0.515,0.297 -0.608,0.297 -0.598,0 -1.305,-0.297 -2.104,-0.297 -1.098,0.703 -2.596,1.102 -2.596,2.699 0.096,0.402 0.29,0.702 0.29,0.896 -0.194,0.306 -0.493,0.306 -0.598,0.306 l -3.093,-1.602 c -0.211,0.101 -0.504,0.195 -0.699,0.4 l -1.502,2.604 c 0.299,0.396 0.394,0.606 0.894,0.699 0.494,-0.093 1.497,-0.699 1.807,0 l -2.401,3.598 c -0.604,-0.093 -0.71,-0.702 -1.004,-0.998 -0.395,-0.101 -0.6,-0.101 -0.998,0 -0.805,-0.195 -1,-0.799 -1.203,-1.297 l -5.31,0 c 0.403,-0.606 0.806,-1.2 0.806,-2.002 -0.096,-0.5 -0.303,-0.8 -0.5,-0.8 -1.301,0.097 -2.401,0.701 -2.805,1.8 0.403,0.508 0,0.103 0,0.508 -0.603,0.493 -1.3,-0.113 -1.503,0.493 -0.195,0.798 -0.195,1.594 -0.698,2.002 0.203,0.699 -0.199,1.596 0.203,2.001 0.6,0.396 1.596,0.396 1.998,0.998 0.803,2.605 3.209,5.005 1.802,8.002 l 0.507,2.612 -0.805,1.594 1.801,4.303 c -0.501,0.605 -1.195,1.707 -1.899,1.707 z m 19.609,-24.218 c -0.598,1.202 -1.9,1.5 -2.391,2.595 -1.211,-0.397 -2.213,0 -3.312,0.204 -0.601,0.405 -0.7,-0.294 -0.7,-0.5 1.5,-1.202 3.302,-3.8 5.7,-3.603 l 0.703,1.304 z m 12.205,22.008 0,1.604 c -0.091,0.606 -0.298,0.606 -0.998,1.308 -1.194,0.697 -2.699,2.095 -4.101,0.991 -0.302,-2.498 -2.103,-4.101 -2.801,-5.998 -0.301,-0.199 -0.407,-0.301 -0.701,-0.301 -0.399,0.103 -0.7,0.301 -0.7,0.702 2.001,2.504 2.001,6.401 5.308,7.201 0,0.404 -0.106,0.599 -0.31,0.712 l -4.298,3.096 c -0.805,0.894 -1.205,2.504 -2.105,4 -1.603,1.007 -2.097,3.105 -3.89,3.906 l -3.312,0.397 -1.704,-0.397 c -0.194,-0.604 0.198,-1.11 0,-2.008 0.198,-3.598 -1.104,-7.202 0,-10.706 -0.402,-1.096 -1.197,-1.898 -2.001,-2.297 -1.1,-0.606 -2.597,-0.202 -3.004,-1.301 l -0.796,-2.603 c 0.092,-0.801 0.501,-1.104 0.698,-2.104 1.108,-1.099 2.208,-2.198 3.71,-2.198 l 3.097,-2.007 c 0.378,0 0.917,0.525 1.079,0.101 l -0.181,0 0.181,-0.01 c 0.002,0 0.002,-0.01 0.002,-0.01 -0.078,-0.043 -0.143,-0.081 -0.183,-0.081 l 0.183,-0.018 -1.081,-1.878 1.003,-1.7 c 0.497,-0.3 1.4,0.098 1.498,-0.404 l -0.22,-0.905 -1.682,0 1.682,0 -0.171,-0.695 -0.209,0 -0.103,-0.099 c 0,-0.096 0,-0.298 -0.096,-0.298 l 0.312,0 -0.002,-0.015 c -0.058,-0.018 -0.111,-0.035 -0.111,-0.093 l 0.087,-0.046 -0.189,-0.754 c 0,-0.593 0.302,-0.697 0.604,-0.997 0.098,-0.099 0.51,-0.099 0.51,-0.099 l 1.391,0.503 c 0.299,-0.404 0.696,-0.404 1.004,-0.503 0.395,0.099 0.488,0.197 0.488,0.399 0.204,0.697 -0.488,0.697 -0.488,1.205 0.028,0.051 0.05,0.111 0.083,0.169 l 0.013,-0.276 0.261,0.599 0.234,0 c -0.072,0.076 -0.122,0.136 -0.165,0.182 l 0.053,0.119 0.01,0.005 0,-0.099 0,0.099 0.048,0.02 0.362,-0.02 0,0.199 c 0.028,0 0.061,0.005 0.104,0.005 l 0.909,-0.791 -0.019,-0.017 c 0.009,0 0.023,0 0.023,0 l 0.082,-0.063 0,-0.333 0.204,0.152 0.035,-0.027 c -0.028,-0.049 -0.039,-0.101 -0.039,-0.125 0.039,0.038 0.055,0.066 0.068,0.094 l 2.433,-2.099 c 0.6,0.603 1.801,0.799 2.394,0.305 1.203,-2.501 2.706,-5.602 1.203,-8.414 -0.693,-0.397 -1.696,-0.494 -1.796,-1.296 -0.101,-0.498 0.1,-0.594 0.593,-0.594 0.51,0.096 1.108,0 1.906,0 3.899,2.095 6.108,5.999 8.104,9.302 2.606,6.304 3.304,13.404 0.502,19.913 -0.302,0.101 -0.502,0 -0.502,0 l -0.501,-1.405 c -0.103,-0.295 -0.395,-0.495 -0.596,-1 -0.688,-0.786 -2.362,-0.794 -3.368,-0.22 l 0.162,0.016 -0.2,0 0,0 z"/>
    <path id="path16" d="m 675.325,210.291 c -1.299,0 -2.304,-0.5 -3.603,-0.697 -0.699,0.197 -1.1,0.697 -1.503,1.298 1.809,2.203 5.017,4.302 5.804,7.797 2.4,3.904 6.011,6.218 10.615,7.209 -3.597,-5.207 -4.704,-12.804 -11.313,-15.607 z"/>
    <path id="path18" d="m 667.726,213.697 c -0.295,0 -0.407,0 -0.698,0.191 -0.104,0.207 -0.104,0.3 -0.309,0.704 -0.101,0.898 0.712,1.304 1.303,1.701 1.705,3.503 5.312,5.806 9.205,7.406 l 0.197,-0.2 0,-0.199 c -2.285,-3.699 -4.403,-8.807 -9.698,-9.603 z"/>
    <path id="path20" d="m 650.612,184.674 0.133,0 c -0.053,-0.02 -0.107,-0.033 -0.133,0 z"/>
    <path id="path22" d="m 649.492,190.753 c 0,0 0,0.01 -0.002,0.01 l 0.023,0 c -0.003,0 -0.013,-0.01 -0.021,-0.01 z"/>
    <path id="path24" d="m 651.114,184.566 -0.102,-0.099 -0.4,0 c 0.123,0.099 0.197,0.166 0.235,0.207 l 0.267,0 c -0.083,0 -0.249,0.069 -0.292,0.164 l 0.388,-0.094 0,-0.069 -0.096,-0.109 z"/>
    <path id="path26" d="m 655.718,184.404 -0.082,0.063 c 0.029,0 0.056,0 0.082,0 l 0,-0.063 z"/>
    <path id="path28" d="m 656.015,184.292 c -0.017,-0.032 -0.042,-0.068 -0.058,-0.095 l -0.035,0.027 0.093,0.069 c 0,0 0,0 0,-0.001 z"/>
    <path id="path30" d="m 664.05,198.383 0.076,0.008 c 0,0 0,0 0,-0.008 l -0.076,0 z"/>
    <path id="path32" d="m 650.555,190.672 -0.345,0 0,0.05 0.348,-0.012 c 0,-0.006 0,-0.03 -0.003,-0.038 z"/>
    <path id="path34" d="m 650.531,184.667 c -0.033,-0.005 -0.072,-0.005 -0.107,-0.008 l 0.002,0.015 0.105,0 0,-0.007 z"/>
    <path id="path36" d="m 663.619,198.28 0.155,0 c -0.034,0 -0.054,0.008 -0.054,-0.096 l -0.202,0 c 0.063,0.03 0.101,0.068 0.101,0.096 z"/>
    <polygon id="polygon38" points="663.828,198.351 663.828,198.351 663.828,198.383 664.024,198.383 664.05,198.383 "/>
    <path id="path40" d="m 675.828,204.091 c -0.689,0.091 -1.096,0.091 -1.401,0.495 -0.194,0.195 -0.3,0.308 -0.3,0.702 0,0.298 0,0.696 0.3,1.006 l 7.607,3.597 4.307,0 c 0.397,-0.1 0.595,-0.1 0.397,-0.7 -3.404,-1.906 -6.506,-5.009 -10.91,-5.1 z"/>
    <path id="path42" d="m 688.049,201.679 c -2.916,-2.595 -7.214,-2.8 -11.016,-2.095 -0.307,0.199 -0.707,0.295 -0.707,0.295 0,0.4 -0.498,0.711 -0.498,1.405 3.602,1.294 6.206,3.203 9.305,5.308 1.208,0.794 2.711,1.193 4.307,1.701 l 4.803,-0.703 c -1.509,-2.809 -4.503,-3.805 -6.194,-5.911 z"/>
    <path id="path44" d="m 596.677,196.279 10.805,3.305 c 2.694,0.199 5.301,-0.404 7.904,-1.107 0.999,-0.393 2.097,-1.198 2.403,-2.198 l -0.707,-1.897 c -6.401,2.692 -15.117,-4.203 -20.405,1.897 z"/>
    <path id="path46" d="m 690.143,193.677 c 0,-0.298 0,-0.5 0,-0.599 -4.111,0.1 -8.407,-1.602 -12.408,0.599 -0.311,0.199 -0.403,1.098 -0.311,1.601 l 2.006,0.599 c 3.611,0 7.506,-0.599 10.713,-2.2 z"/>
    <path id="path48" d="m 650.814,190.672 -0.26,0 c 0.003,0.008 0.003,0.032 0.003,0.038 l 0.652,-0.038 -0.546,0.182 c 0.169,0.161 0.496,0.31 0.66,0.521 l 1.087,1.908 4.502,1.594 0.104,-0.103 0.301,-0.194 c 0,-0.564 -0.396,-0.859 -0.872,-1.104 l -0.033,0 0,-0.017 c -0.45,-0.22 -0.955,-0.397 -1.292,-0.688 -0.064,0 -0.138,0.019 -0.209,0.033 l 0,0 c 0.057,0.06 0.102,0.127 0.102,0.172 -0.009,0.005 -0.009,0.013 -0.012,0.02 0.022,0.015 -0.043,0.042 0,0 -0.012,-0.015 -0.033,-0.02 -0.09,-0.02 l 0,-0.172 0,0 c -0.412,0.076 -0.986,0.33 -1.501,0.069 l -0.397,-2.496 c -0.603,-0.505 -1.689,-0.396 -2.199,0 -0.079,0.045 -0.128,0.081 -0.177,0.123 l 0.177,-0.028 0,0.2 0,0 z"/>
    <path id="path50" d="m 617.392,190.672 c 0,-0.293 0,-0.396 -0.31,-0.493 -2.604,-0.305 -5.493,-0.698 -8.307,-0.698 -2.092,0.394 -4.5,0.698 -5.901,1.895 l 7.302,1.703 c 2.511,0.099 5.506,-0.906 7.216,-2.407 z"/>
    <path id="path52" d="m 658.714,192.173 c -0.202,0.506 0.305,0.905 0.698,0.905 l 0.308,-0.204 c -0.203,-0.396 -0.499,-0.701 -1.006,-0.701 z"/>
    <path id="path54" d="m 690.143,186.776 c -4.21,-1.201 -8.802,-1.402 -12.408,0.3 -0.508,0.702 -0.101,1.9 -0.311,2.908 l 10.016,1.794 c 2.905,-0.301 6.698,-0.797 8.406,-3.502 -1.708,-0.601 -3.909,-0.404 -5.703,-1.5 z"/>
    <path id="path56" d="m 608.775,178.771 c -2.895,-2.708 -7.406,-2.498 -10.901,-1.708 0,0.606 -0.405,0 0,0.606 5.304,2.701 8.902,7.304 15.309,8.702 l 0.293,-0.101 4.313,-0.896 c 0.296,-0.402 0.405,-1.101 0.296,-1.608 -3.606,-0.899 -6.496,-2.693 -9.31,-4.995 z"/>
    <path id="path58" d="m 656.801,184.972 c -0.149,0.251 -0.31,0.508 -0.583,0.702 -0.203,0.298 0.091,0.801 0.507,0.697 l 1.787,-0.697 -0.19,-1.4 c 0,0 -0.31,-0.107 -0.604,-0.303 -0.467,0.177 -0.671,0.554 -0.881,0.938 l 0.076,0.063 -0.112,0 0,0 z"/>
    <path id="path60" d="m 676.023,181.672 0.303,1.903 c 0,0 0.207,0 0.4,0.19 3.904,-0.394 6.805,-2.395 9.614,-4.995 l 1.001,-2.405 c -2.602,0.404 -4.91,3.305 -8.314,3.1 -1.293,0.799 -2.403,0.905 -3.004,2.207 z"/>
    <path id="path62" d="m 607.782,173.764 c -1.006,0.194 -1.901,0.094 -2.507,0.899 2.807,2.106 5.606,4.599 9.908,6.004 l 4.307,-0.704 c 0.093,-0.093 0.291,-0.293 0.291,-0.702 -3.396,-2.491 -6.903,-5.796 -11.999,-5.497 z"/>
    <path id="path64" d="m 690.245,169.964 c 0.1,-0.408 0.295,-0.71 0.394,-1 -3.6,0.895 -7.598,1.398 -11.505,2.401 -2.407,1.103 -4.707,2.492 -5.704,4.602 0,1.095 0.402,2.1 1.405,2.803 l 0.304,0 c 6.202,-1.707 11.9,-2.802 15.106,-8.806 z"/>
    <path id="path66" d="m 621.389,174.664 1.408,-0.399 c 0.289,-0.5 0.801,-0.799 0.801,-1.602 -4.41,-2.002 -5.809,-7.107 -8.614,-10.312 -1.896,-1.397 -4.4,-2.904 -7.502,-3.2 2.399,2.808 3.896,6.404 5.396,9.813 2.105,3.105 5.316,4.401 8.511,5.7 z"/>
    <path id="path68" d="m 680.631,160.751 c -2.896,2.107 -5.395,5.209 -8.908,7.011 -1.1,1.099 -1.996,1.697 -2.298,2.898 l 1.398,2.002 0.2,0 c 2.706,-0.897 5,-3.106 7.008,-5.005 l 2.6,-6.906 z"/>
    <path id="path70" d="m 622.092,168.759 3.305,1.205 c 0.497,0 0.6,0 1,-0.104 0.193,0 0.293,-0.2 0.394,-0.605 -1.901,-4.394 -5.099,-7.295 -10.405,-8.901 -0.293,0 -0.496,0 -0.496,0 l 3.893,6.704 2.309,1.701 z"/>
    <path id="path72" d="m 666.924,168.86 0.507,-0.101 c 3.895,-4.303 10.405,-4.501 12.802,-10.406 0.298,-1.298 0.298,-2.406 0.701,-3.406 0,-0.098 -0.099,-0.098 -0.602,-0.098 -4.006,3.704 -11.505,3.207 -14.014,8.905 -0.091,1.4 -0.998,2.305 -0.998,3.604 0.201,0.804 0.998,1.103 1.604,1.502 z"/>
    <path id="path74" d="m 631.1,165.96 1.698,-0.601 c 0.103,-0.103 0.3,-0.406 0.3,-0.703 -2.903,-5.405 -2.698,-12.71 -8.609,-16.51 -0.891,-0.507 -1.3,-1 -2.003,-1.101 2.003,3.598 1.703,9.001 3.408,13.605 1.108,2.208 3.011,4.21 5.206,5.31 z"/>
    <path id="path76" d="m 659.72,163.954 c 0.093,0.502 0.5,0.906 1.298,1 0.305,0 0.903,-0.093 0.998,-0.297 2.11,-2.5 3.505,-7.208 2.209,-10.909 l -4.708,9.511 c 0,0.203 0,0.496 0.203,0.695 z"/>
    <path id="path78" d="m 636.598,163.755 0.202,-0.2 0.3,-0.093 c 0.998,-2.012 -0.3,-4.708 -1.391,-6.811 -1.513,-1.801 -3.313,-4.21 -5.31,-5.199 0.497,2.295 1.398,4.595 1.902,7.301 1.099,1.898 1.895,4.105 4.297,5.002 z"/>
    <path id="path80" d="m 656.015,162.858 0.294,-0.2 c 2.405,-4.305 7.112,-7.808 7.008,-13.708 -0.496,-1.312 0.202,-2.907 -0.695,-3.814 -1.809,3.01 -5.21,6.315 -7.812,9.511 -1.294,2.301 -1.694,5.003 -1.694,7.405 l 2.695,0.998 0.204,-0.192 z"/>
    <path id="path82" d="m 641.702,161.959 c 0.098,0 0.306,0 0.407,0.094 l 1.893,-0.603 c -0.801,-4.002 1.109,-8.296 1.801,-12.5 -0.691,-2.509 -1.097,-5.215 -2.695,-7.008 -1.803,5.697 -5.212,11.609 -2.706,18.011 l 1.3,2.006 z"/>
    <path id="path84" d="m 647.811,161.656 0.202,0 c 0.098,0 0.501,0 0.69,-0.206 0.403,-0.699 0.508,-1.799 1.001,-2.697 0.808,-3.806 0,-8.007 -1.993,-10.708 -0.301,3.998 -2.511,8.904 -0.505,12.908 0.204,0.4 0.204,0.497 0.605,0.703 z"/>
    <polygon id="polygon86" points="649.31,190.773 649.31,190.773 649.49,190.773 649.49,190.763 "/>
    <path id="path88" d="m 649.514,190.763 -0.023,0 c 0,0.005 0,0.01 0,0.01 l 0.057,0 c -0.01,0 -0.023,-0.005 -0.034,-0.01 z"/>
    <path id="path90" d="m 650.558,190.71 -0.348,0.012 0,0.051 0,0.103 0.402,0 0.052,-0.021 c -0.052,-0.042 -0.086,-0.092 -0.106,-0.145 z"/>
    <path id="path92" d="m 650.558,190.71 c 0.021,0.053 0.055,0.103 0.106,0.144 l 0.546,-0.182 -0.652,0.038 z"/>
    <path id="path94" d="m 650.313,184.566 c 0,0.058 0.054,0.075 0.111,0.093 l -0.024,-0.139 -0.087,0.046 z"/>
    <path id="path96" d="m 650.612,184.467 0.4,0 0.102,0.099 0.096,0.108 0,0.069 0.149,-0.038 c 0.056,-0.015 0.112,-0.031 0.151,-0.031 l -0.151,0.031 c -0.057,0.018 -0.104,0.038 -0.149,0.051 l 0,0.119 0.4,0 0,-0.111 0.204,0 0.101,-0.091 0,-0.108 0.095,0 0,-0.099 0.103,0 0,-0.098 0.101,0 0,-0.096 0.1,0 0.099,-0.107 c 0,-0.4 0,-0.695 0.197,-0.993 l -2.209,1.347 0.024,0.139 c 0.035,0.003 0.074,0.003 0.107,0.008 l 0.08,-0.199 z"/>
    <path id="path98" d="m 655.918,184.072 c 0,0.025 0.011,0.076 0.039,0.125 l 0.029,-0.031 c -0.013,-0.028 -0.029,-0.056 -0.068,-0.094 z"/>
    <path id="path100" d="m 655.986,184.166 -0.029,0.031 c 0.016,0.027 0.041,0.063 0.058,0.095 0,-0.032 -0.007,-0.08 -0.029,-0.126 z"/>
    <path id="path102" d="m 656.024,184.3 c -0.01,-0.007 -0.01,-0.007 -0.01,-0.008 0,0.001 0,0.001 0,0.001 l 0.01,0.007 z"/>
    <polygon id="polygon104" points="656.122,184.37 656.122,184.37 656.122,184.37 "/>
    <polygon id="polygon106" points="655.718,184.072 655.718,184.072 655.718,184.404 655.922,184.224 "/>
    <path id="path108" d="m 655.918,184.674 0.097,0.091 -0.297,-0.215 0,0.215 0.093,0 0,0.207 0.99,0 c 0.008,-0.019 0.024,-0.04 0.036,-0.063 l -0.715,-0.54 0,0.045 c 0.024,0.035 0.063,0.053 0.096,0.053 l 0,0.207 0.195,0 0,0.091 c 0.009,0.018 0.017,0.018 0.017,0.02 0.076,0.025 0.062,0.053 0,0 -0.026,-0.002 -0.063,-0.02 -0.121,-0.02 l -0.091,-0.091 -0.096,-0.108 0,-0.152 c -0.024,-0.02 -0.038,-0.03 -0.045,-0.045 -0.063,-0.01 -0.063,-0.03 -0.063,-0.076 l -0.093,-0.069 -0.204,0.18 0,0.063 c 0.201,0.004 0.201,0.03 0.201,0.207 z"/>
    <path id="path110" d="m 656.122,184.37 -0.098,-0.069 c 0.02,0.024 0.04,0.044 0.053,0.069 0.007,0 0.021,0 0.045,0 z"/>
    <path id="path112" d="m 656.913,184.972 -0.076,-0.063 c -0.012,0.023 -0.028,0.044 -0.036,0.063 l 0.112,0 z"/>
    <path id="path114" d="m 656.43,184.785 c 0,-0.002 -0.008,-0.002 -0.017,-0.02 l 0,-0.091 -0.195,0 0.091,0.091 c 0.058,0 0.094,0.018 0.121,0.02 z"/>
    <path id="path116" d="m 656.218,184.674 0,-0.207 c -0.033,0 -0.071,-0.018 -0.096,-0.053 l 0,0.152 0.096,0.108 z"/>
    <path id="path118" d="m 656.43,184.785 c 0.061,0.053 0.076,0.025 0,0 l 0,0 z"/>
    <path id="path120" d="m 656.077,184.37 c -0.013,-0.025 -0.033,-0.045 -0.053,-0.069 l -0.01,-0.007 c 10e-4,0.046 10e-4,0.066 0.063,0.076 z"/>
    <path id="path122" d="m 656.122,184.415 0,-0.045 0,0 c -0.024,0 -0.038,0 -0.045,0 0.007,0.014 0.021,0.025 0.045,0.045 z"/>
    <path id="path124" d="m 654.338,185.197 c 0.074,0.033 0.166,0.054 0.279,0.073 l 0,-0.199 -0.362,0.02 0.156,0.079 c -0.02,0 -0.037,0.016 -0.073,0.027 z"/>
    <path id="path126" d="m 654.267,185.237 0.145,0.338 0.107,-0.104 0.099,-0.096 0,-0.104 c -0.113,-0.019 -0.205,-0.04 -0.279,-0.073 -0.02,0.01 -0.049,0.026 -0.072,0.039 z"/>
    <path id="path128" d="m 653.747,185.118 -3.135,0.157 c 0.502,0.3 1.303,0 1.7,0.195 l 0,0.104 0.198,0 c 0,0.192 0.098,0 0.098,0.192 l 0.303,0 0,0.107 0.903,0 0,-0.107 0.299,0 c 0,-0.192 0.094,0 0.094,-0.192 l -0.488,0 0.028,-0.456 z"/>
    <path id="path130" d="m 654.131,185.027 0.066,0.04 -0.053,-0.119 c -0.019,0.017 -0.031,0.035 -0.042,0.055 0.011,0 0.021,0.02 0.029,0.024 z"/>
    <path id="path132" d="m 654.075,184.765 -0.261,-0.599 -0.013,0.276 c 0.053,0.124 0.109,0.232 0.165,0.323 l 0.109,0 0,0 z"/>
    <path id="path134" d="m 654.131,185.027 c -0.008,-0.003 -0.018,-0.023 -0.028,-0.025 l -0.015,10e-4 0.043,0.024 z"/>
    <path id="path136" d="m 653.967,184.765 c -0.056,-0.091 -0.112,-0.199 -0.165,-0.323 l -0.033,0.323 0.198,0 z"/>
    <path id="path138" d="m 653.886,185.071 -0.071,0 0,-0.099 -0.051,0 -0.017,0.146 0.169,-0.015 c -0.005,-0.007 -0.015,-0.023 -0.03,-0.032 z"/>
    <path id="path140" d="m 654.207,185.275 0,0.195 -0.197,0 c 0,-0.035 0,-0.071 0,-0.096 l 0,0 0,-0.099 c 0,0 -0.041,-0.078 -0.094,-0.172 l -0.169,0.015 -0.028,0.457 0.488,0 0.204,0 -0.145,-0.338 c -0.011,0.013 -0.031,0.023 -0.059,0.038 z"/>
    <path id="path142" d="m 654.207,185.47 0,-0.195 c -0.02,0.012 -0.033,0.025 -0.066,0.042 0.047,0.057 0.066,0.119 0.066,0.153 z"/>
    <path id="path144" d="m 654.31,184.765 -0.234,0 0.069,0.182 c 0.043,-0.046 0.092,-0.106 0.165,-0.182 z"/>
    <path id="path146" d="m 653.516,184.765 c 0.107,0 0.107,0.111 0.107,0.207 l 0.141,0 0.005,-0.207 -0.253,0 z"/>
    <path id="path148" d="m 654.103,185.002 c 0.011,-0.02 0.023,-0.038 0.042,-0.055 l -0.069,-0.182 -0.108,0 c 0.042,0.086 0.087,0.174 0.135,0.237 z"/>
    <path id="path150" d="m 653.814,185.071 0.071,0 c -0.031,-0.08 -0.071,-0.162 -0.071,-0.195 l 0.102,0.096 0.094,0.099 0,-0.099 0.078,0.031 0.015,-10e-4 c -0.048,-0.063 -0.093,-0.151 -0.136,-0.237 l -0.198,0 -0.005,0.207 0.051,0 0,0.099 -0.001,0 z"/>
    <path id="path152" d="m 654.01,185.374 c 0,0.025 0,0.062 0,0.096 l 0.197,0 -0.119,-0.124 c -0.029,0.015 -0.048,0.028 -0.078,0.028 z"/>
    <polygon id="polygon154" points="650.21,184.972 650.313,185.071 650.521,185.071 650.498,184.972 650.405,184.972 650.405,184.972 "/>
    <path id="path156" d="m 651.013,184.972 0,-0.096 0.102,-0.111 c 0.022,0 0.055,-10e-4 0.096,-0.008 l 0,-0.013 -0.388,0.094 c -0.008,0.003 -0.008,0.021 -0.008,0.038 l 0,0.096 -0.303,0 -0.014,0 0.023,0.099 0.391,0 0.101,-0.099 z"/>
    <path id="path158" d="m 651.21,184.744 0,0.013 c 0.046,-0.013 0.093,-0.033 0.149,-0.051 l -0.149,0.038 z"/>
    <path id="path160" d="m 651.359,184.706 0.151,-0.031 c -0.038,-0.001 -0.095,0.016 -0.151,0.031 z"/>
    <path id="path162" d="m 650.745,184.674 0.103,0 c -0.038,-0.042 -0.112,-0.108 -0.235,-0.207 l 0,0.207 c 0.025,-0.033 0.079,-0.02 0.132,0 z"/>
    <polygon id="polygon164" points="650.512,184.904 650.512,184.904 650.638,184.876 650.512,184.876 "/>
    <path id="path166" d="m 650.531,184.667 0,0.007 0.081,0 c -0.021,0 -0.054,-0.007 -0.081,-0.007 z"/>
    <path id="path168" d="m 650.612,184.467 -0.081,0.2 c 0.026,0 0.06,0.007 0.081,0.007 l 0,-0.207 z"/>
    <polygon id="polygon170" points="650.512,184.972 650.814,184.972 650.814,184.876 650.638,184.876 650.512,184.904 650.512,184.904 "/>
    <polygon id="polygon172" points="654.207,185.091 654.207,185.091 654.207,185.071 654.197,185.066 "/>
    <polygon id="polygon174" points="654.255,185.091 654.255,185.091 654.207,185.071 654.207,185.091 "/>
    <polygon id="polygon176" points="654.207,185.091 654.207,185.091 654.207,185.091 654.207,185.103 "/>
    <path id="path178" d="m 654.207,185.103 0.007,0.015 c 0.046,0.025 0.076,0.053 0.124,0.08 0.036,-0.012 0.053,-0.027 0.073,-0.027 l -0.156,-0.079 -0.048,0 0,0.011 z"/>
    <path id="path180" d="m 654.338,185.197 c -0.048,-0.027 -0.078,-0.055 -0.124,-0.08 l 0.053,0.119 c 0.023,-0.012 0.052,-0.028 0.071,-0.039 z"/>
    <path id="path182" d="m 654.188,185.091 0.02,0 -0.01,-0.025 -0.066,-0.04 c 0.014,0.029 0.044,0.045 0.056,0.065 z"/>
    <path id="path184" d="m 654.047,185.096 0.141,-0.005 c -0.012,-0.02 -0.042,-0.037 -0.057,-0.064 l -0.043,-0.023 c -0.013,0.039 -0.029,0.067 -0.041,0.092 z"/>
    <path id="path186" d="m 654.207,185.108 0,-0.005 0,-0.012 -0.02,0 c 0.01,0.005 0.02,0.017 0.02,0.017 z"/>
    <path id="path188" d="m 654.214,185.118 -0.007,-0.015 0,0.005 c 0.005,0.01 0.005,0.01 0.007,0.01 z"/>
    <path id="path190" d="m 654.207,185.275 c 0.028,-0.015 0.048,-0.025 0.06,-0.038 l -0.053,-0.119 c -0.002,0 -0.002,0 -0.007,-0.01 l 0,0.167 z"/>
    <path id="path192" d="m 654.04,185.139 c 0.019,0.051 0.063,0.114 0.101,0.177 0.033,-0.017 0.047,-0.03 0.066,-0.042 l 0,-0.167 c 0,0 -0.01,-0.012 -0.02,-0.017 l -0.141,0.005 c 10e-4,0.013 -0.006,0.028 -0.006,0.044 z"/>
    <path id="path194" d="m 654.01,185.275 0,0.099 0,0 c 0,-0.036 0.012,-0.073 0.012,-0.099 l -0.012,0 z"/>
    <path id="path196" d="m 654.047,185.096 c 0.012,-0.025 0.028,-0.053 0.041,-0.093 l -0.078,-0.031 0,0.099 c 0,0.008 0.012,0.02 0.012,0.032 l 0.025,-0.007 z"/>
    <path id="path198" d="m 654.04,185.139 c 0,-0.017 0.007,-0.031 0.007,-0.043 l -0.025,0.007 c -0.001,0.005 0.009,0.02 0.018,0.036 z"/>
    <path id="path200" d="m 654.021,185.275 c 0,0.026 -0.012,0.063 -0.012,0.099 0.03,0 0.049,-0.013 0.078,-0.028 l -0.066,-0.071 z"/>
    <path id="path202" d="m 650.467,184.838 -0.041,-0.164 -0.312,0 c 0.096,0 0.096,0.202 0.096,0.298 l 0.226,-0.058 0.031,-0.076 z"/>
    <path id="path204" d="m 651.114,184.674 -0.267,0 c 0.124,0.109 0.018,0.031 -0.103,0 l -0.133,0 0,0.091 0.202,0 0,0.073 0.008,0 c 0.044,-0.094 0.21,-0.164 0.293,-0.164 z"/>
    <polygon id="polygon206" points="650.531,184.674 650.531,184.674 650.426,184.674 650.467,184.838 "/>
    <polygon id="polygon208" points="650.436,184.914 650.436,184.914 650.21,184.972 650.405,184.972 "/>
    <path id="path210" d="m 650.814,184.876 c 0,-0.017 0,-0.035 0.008,-0.038 l -0.008,0 0,0.038 z"/>
    <polygon id="polygon212" points="650.467,184.838 650.467,184.838 650.436,184.914 650.481,184.909 "/>
    <polygon id="polygon214" points="650.467,184.838 650.481,184.909 650.512,184.904 650.512,184.904 650.512,184.876 650.638,184.876 650.814,184.838 650.814,184.765 650.612,184.765 650.612,184.674 650.531,184.674 "/>
    <path id="path216" d="m 650.848,184.674 -0.103,0 c 0.12,0.032 0.227,0.109 0.103,0 z"/>
    <polygon id="polygon218" points="650.436,184.914 650.436,184.914 650.405,184.972 650.498,184.972 650.481,184.909 "/>
    <polygon id="polygon220" points="650.481,184.909 650.481,184.909 650.498,184.972 650.512,184.972 650.512,184.904 "/>
    <polygon id="polygon222" points="650.638,184.876 650.638,184.876 650.814,184.876 650.814,184.838 "/>
    <path id="path224" d="m 654.01,185.071 -0.124,0 c 0.016,0.008 0.025,0.025 0.03,0.032 l 0.094,0 0,-0.032 z"/>
    <path id="path226" d="m 654.126,185.321 c 0.05,0.066 0.081,0.104 0.081,0.149 0,-0.035 -0.02,-0.096 -0.066,-0.154 0,0.005 -0.01,0.005 -0.015,0.005 z"/>
    <path id="path228" d="m 653.916,185.103 c 0.053,0.094 0.094,0.172 0.094,0.172 l 0,-0.172 -0.094,0 z"/>
    <path id="path230" d="m 653.916,184.972 -0.102,-0.096 c 0,0.033 0.04,0.116 0.071,0.195 l 0.124,0 -0.093,-0.099 z"/>
    <path id="path232" d="m 654.088,185.346 0.119,0.124 c 0,-0.045 -0.031,-0.083 -0.081,-0.149 -0.013,0.017 -0.023,0.022 -0.038,0.025 z"/>
    <path id="path234" d="m 654.021,185.103 c 0,-0.012 -0.012,-0.023 -0.012,-0.032 l 0,0.032 0.012,0 z"/>
    <path id="path236" d="m 654.126,185.321 c 0.005,0 0.015,0 0.015,-0.005 -0.038,-0.063 -0.082,-0.126 -0.101,-0.177 0,0.003 -0.009,0.01 -0.009,0.015 0.024,0.07 0.057,0.129 0.095,0.167 z"/>
    <path id="path238" d="m 654.031,185.154 c -0.01,-0.015 -0.01,-0.031 -0.01,-0.051 l -0.012,0 0,0.172 0.012,0 c 0,-0.045 0,-0.085 0.01,-0.121 z"/>
    <path id="path240" d="m 654.021,185.103 c 0,-0.012 -0.012,-0.023 -0.012,-0.032 10e-4,0.009 0.012,0.02 0.012,0.032 l 0,0 z"/>
    <path id="path242" d="m 654.021,185.103 c 0,0.02 0,0.036 0.01,0.051 0,-0.005 0.009,-0.011 0.009,-0.015 -0.009,-0.016 -0.019,-0.031 -0.019,-0.036 l 0,0 z"/>
    <path id="path244" d="m 654.021,185.275 0.066,0.071 c 0.015,-0.003 0.025,-0.008 0.038,-0.025 -0.038,-0.038 -0.071,-0.098 -0.095,-0.167 -0.009,0.036 -0.009,0.076 -0.009,0.121 z"/>
    <path id="path246" d="m 655.612,184.467 0.019,0.017 0.005,-0.017 c 0,0 -0.015,0 -0.024,0 z"/>
    <path id="path248" d="m 655.718,184.467 c -0.026,0 -0.053,0 -0.082,0 l -0.005,0.017 0.087,0.066 0,-0.083 z"/>
    <path id="path250" d="m 655.918,184.674 c 0,-0.177 0,-0.204 -0.2,-0.207 l 0,0.083 0.297,0.215 -0.097,-0.091 z"/>
    <path id="path252" d="m 649.492,190.654 -0.183,0.018 c 0.04,0 0.104,0.038 0.183,0.081 0.008,-0.031 0.017,-0.046 0.018,-0.081 l -0.018,-0.018 z"/>
    <path id="path254" d="m 650.21,190.722 0,-0.05 0.345,0 c -0.01,-0.053 0.023,-0.114 0.083,-0.17 l -1.146,0.152 0.018,0.018 c -10e-4,0.035 -0.01,0.05 -0.018,0.081 0.008,0 0.018,0.01 0.021,0.01 l 0.697,-0.041 z"/>
    <path id="path256" d="m 650.005,190.875 0,-0.103 -0.458,0 c 0.157,0.079 0.344,0.163 0.458,0.103 z"/>
    <path id="path258" d="m 650.555,190.672 0.26,0 0,-0.199 -0.177,0.028 c -0.06,0.057 -0.093,0.118 -0.083,0.171 z"/>
    <path id="path260" d="m 649.514,190.763 c 0.012,0.005 0.024,0.01 0.033,0.01 l 0.458,0 0.205,0 0,-0.051 -0.696,0.041 z"/>
    <path id="path262" d="m 666.318,198.675 0.202,0 -0.162,-0.016 c -0.008,0.008 -0.023,0.008 -0.04,0.016 z"/>
    <path id="path264" d="m 664.72,198.464 0.601,0.211 0.998,0 c 0.017,-0.008 0.031,-0.008 0.04,-0.016 l -1.639,-0.195 z"/>
    <path id="path266" d="m 663.395,197.977 0.026,0.017 c 0,-0.008 0,-0.008 0,-0.017 -0.002,0 -0.015,0 -0.026,0 z"/>
    <polygon id="polygon268" points="663.519,198.184 663.519,198.184 663.519,198.184 "/>
    <path id="path270" d="m 663.774,198.28 -0.155,0 c 0,-0.028 -0.038,-0.066 -0.101,-0.096 l 0,0 0,0 c -0.131,-0.1 -0.393,-0.207 -0.393,-0.207 0,0.107 0.093,0.107 0.093,0.303 l 0.601,0.071 c 0,-0.063 -0.023,-0.063 -0.045,-0.071 z"/>
    <path id="path272" d="m 663.819,198.351 c 0.009,0.005 0.009,0.021 0.009,0.032 l 0,-0.032 -0.009,0 z"/>
    <path id="path274" d="m 663.828,198.28 -0.054,0 c 0.021,0.008 0.045,0.008 0.045,0.071 l 0.009,0 0,-0.071 z"/>
    <path id="path276" d="m 664.024,198.383 c 0,0.205 0.102,0 0.102,0.205 l 0.099,0 c 0,-0.197 -0.099,-0.012 -0.099,-0.197 l -0.076,-0.008 -0.026,0 z"/>
    <path id="path278" d="m 664.524,198.78 0.195,0 0,0.099 0.801,0 0,-0.099 c -0.089,-0.104 -0.604,0.099 -0.7,0 l 0,-0.104 -0.36,0 c 0.026,0.01 0.064,-0.009 0.064,0.104 z"/>
    <path id="path280" d="m 663.519,198.184 0,0 0.202,0 c 0,0.104 0.02,0.096 0.054,0.096 l 0.054,0 0,0.071 0.222,0.032 0.076,0 c 0,0.008 0,0.008 0,0.008 l 0.594,0.073 -1.299,-0.47 c 0.009,0.169 0.097,-0.009 0.097,0.19 z"/>
    <path id="path282" d="m 663.395,197.977 -0.269,-0.091 c 0,0.086 0.155,0.091 0.269,0.091 z"/>
    <path id="path284" d="m 664.46,198.675 c -0.023,0 -0.035,-0.008 -0.035,-0.087 l 0,0.087 0.035,0 z"/>
    <path id="path286" d="m 654.519,192.272 c 0.099,0 0.099,0.03 0.099,0.049 l 0,-0.049 -0.099,0 z"/>
    <path id="path288" d="m 654.411,191.978 c -0.401,-0.602 -0.298,-0.404 0,0.098 l 0.107,0 0,-0.098 -0.107,0 z"/>
    <path id="path290" d="m 654.884,192.772 c -0.024,-0.017 -0.046,-0.04 -0.074,-0.058 0,0.027 0,0.058 0.074,0.058 z"/>
    <path id="path292" d="m 654.617,192.322 0,0.156 0.104,0 0,-0.103 c -0.104,0 -0.104,-0.026 -0.104,-0.053 z"/>
    <path id="path294" d="m 654.912,192.772 c -0.017,0 -0.02,0 -0.028,0 0.009,0.013 0.019,0.019 0.028,0.033 l 0,0 0,-0.033 z"/>
    <path id="path296" d="m 654.722,192.679 c 0.015,0 0.057,0.008 0.088,0.035 0,-0.018 -0.01,-0.035 -0.088,-0.035 z"/>
    <polygon id="polygon298" points="654.912,192.805 654.912,192.805 654.912,192.805 "/>
    <path id="path300" d="m 655.002,192.997 c -0.043,0.042 0.022,0.015 0,0 l 0,0 z"/>
    <path id="path302" d="m 655.002,192.997 c 0.003,-0.006 0.003,-0.015 0.012,-0.02 0,-0.045 -0.045,-0.113 -0.102,-0.172 l 0,0.172 c 0.057,0.001 0.078,0.005 0.09,0.02 z"/>
    <path id="path304" d="m 656.913,193.477 0.104,-0.098 c 0,-0.096 0,-0.202 0.094,-0.202 l -0.698,0 0,0.283 c 0.017,0.005 0.031,0.017 0.033,0.017 l 0.467,0 0,0 z"/>
    <path id="path306" d="m 656.446,193.477 c -0.002,0 -0.017,-0.012 -0.033,-0.017 l 0,0.017 0.033,0 z"/>
  </g>
</svg>