<svg>
  <g id="northern-ireland-icon">
    <g id="g10" transform="matrix(1.25,0,0,-1.25,-47.9625,42.307502)">
      <g id="petals">
        <g id="g100" transform="matrix(0.28066512,0,0,0.28066512,49.893997,24.77683)">
          <path id="path102" d="M 0,0 C 8.485,3.637 12.744,12.745 14.019,21.453 15.093,21.015 14.079,8.547 7.222,0 6.01,-1.51 4.754,-3.071 3.163,-4.201 1.927,-5.079 -0.224,-6.109 -1.753,-5.407 -2.838,-4.909 -3.177,-3.431 -2.744,-2.437 -2.249,-1.302 -1.111,-0.476 0,0"/>
        </g>
        <g id="g104" transform="matrix(0.28066512,0,0,0.28066512,48.732523,26.430816)">
          <path id="path106" d="m 0,0 c 5.256,3.154 9.25,8.364 11.198,14.151 0.922,2.737 1.593,5.664 1.465,8.569 -0.014,0.31 -0.145,2.313 -0.394,3.168 0.77,0.1 1.026,-1.525 1.129,-1.997 1.29,-5.53 0.384,-11.845 -1.523,-17.182 C 11.321,5.159 10.624,3.642 9.794,2.218 8.511,0.015 6.979,-2.023 5.076,-3.729 3.516,-5.127 0.773,-7.202 -1.488,-6.373 -2.724,-5.919 -3.29,-4.626 -3.039,-3.399 -2.709,-1.791 -1.322,-0.793 0,0"/>
        </g>
        <g id="g108" transform="matrix(0.28066512,0,0,0.28066512,46.851673,19.295552)">
          <path id="path110" d="m 0,0 c 0.141,0.095 0.291,0.172 0.449,0.229 2.106,0.752 3,-1.661 4.568,-2.382 5.549,-2.554 8.268,2.957 9.221,2.566 C 12.595,-4.78 6.047,-8.161 0.644,-5.109 -0.182,-4.642 -0.962,-3.847 -1.174,-2.785 -1.372,-1.786 -0.852,-0.575 0,0"/>
        </g>
        <g id="g112" transform="matrix(0.28066512,0,0,0.28066512,44.947612,18.285044)">
          <path id="path114" d="M 0,0 C 0.329,0.908 0.929,1.73 1.862,1.973 2.72,2.196 4.046,1.898 4.537,1.04 6.056,-1.617 0.93,-6.905 5.15,-7.454 6.638,-7.665 8.274,-6.576 9.422,-5.545 9.422,-7.033 7.781,-8.166 6.236,-8.731 4.632,-9.266 2.524,-9.139 1.149,-8.002 -1.179,-6.074 -0.975,-2.69 0,0"/>
        </g>
        <g id="g116" transform="matrix(0.28066512,0,0,0.28066512,44.339297,19.084124)">
          <path id="path118" d="m 0,0 c 0.624,-0.175 1.046,-0.67 1.281,-1.258 0.737,-1.837 -1.505,-5.667 -2.533,-7.286 -3.425,-5.263 -1.183,-7.692 -1.927,-7.795 -1.778,2.096 -1.83,6.99 -1.186,10.504 0.371,2.029 1.029,5.382 3.511,5.886 C -0.598,0.103 -0.296,0.082 0,0"/>
        </g>
        <g id="g120" transform="matrix(0.28066512,0,0,0.28066512,42.621037,19.769316)">
          <path id="path122" d="M 0,0 C 1.337,1.877 3.229,2.234 4.26,1.142 4.881,0.484 5.156,-0.369 4.443,-1.379 3.127,-3.242 1.593,-3.023 0.212,-6.797 c -1.213,-3.68 0.175,-7.077 -0.636,-7.647 -1.564,2.981 -1.673,7.774 -1.673,7.987 0,2.335 0.66,4.44 2.097,6.457"/>
        </g>
        <g id="g124" transform="matrix(0.28066512,0,0,0.28066512,42.501951,21.319201)">
          <path id="path126" d="M 0,0 C 0.848,0.735 1.543,0.771 1.981,0.662 3.043,0.396 3.488,-0.858 2.992,-1.767 2.348,-2.95 0.967,-3.645 0.057,-4.604 -0.487,-5.178 -1.036,-5.845 -1.429,-6.534 -1.736,-7.072 -1.949,-7.686 -2.024,-8.303 -2.069,-8.668 -2.06,-9.074 -2.175,-9.424 -2.204,-9.514 -2.251,-9.608 -2.322,-9.673 -2.336,-9.686 -2.545,-9.804 -2.549,-9.771 -2.975,-6.372 -2.724,-2.36 0,0"/>
        </g>
        <g id="g128" transform="matrix(0.28066512,0,0,0.28066512,43.464463,23.504994)">
          <path id="path130" d="m 0,0 c 1.001,0.393 2.13,-0.194 2.233,-1.302 0.14,-1.501 -0.972,-3.14 -2.317,-3.738 -0.45,-0.2 -0.955,-0.339 -1.439,-0.424 -0.654,-0.116 -1.36,-0.208 -1.906,-0.618 -0.85,-0.636 -1.508,-2.634 -1.913,-2.549 -0.154,0.033 0.379,2.083 0.441,2.272 0.24,0.733 0.562,1.441 0.949,2.108 0.779,1.341 1.735,2.593 2.918,3.602 C -0.739,-0.397 -0.383,-0.15 0,0"/>
        </g>
        <g id="g132" transform="matrix(0.28066512,0,0,0.28066512,44.370398,25.760477)">
          <path id="path134" d="M 0,0 C 2.35,3.447 3.69,4.859 6.292,7.116 6.651,7.427 6.705,7.015 6.619,6.793 1.425,1.096 3.891,-1.48 2.74,-4.329 2.434,-5.349 1.409,-6.697 0.175,-6.88 -0.93,-7.044 -1.926,-5.968 -1.898,-4.896 -1.856,-3.261 -0.886,-1.3 0,0"/>
        </g>
        <g id="g136" transform="matrix(0.28066512,0,0,0.28066512,45.902069,24.903578)">
          <path id="path138" d="m 0,0 c -0.304,0.086 -0.579,0.228 -0.781,0.447 -0.612,0.661 -0.562,1.682 -0.227,2.453 0.54,1.244 1.483,2.161 2.383,3.143 1.399,1.525 2.724,2.616 4.238,4.025 1.234,1.149 2.631,2.582 3.727,3.873 0.86,1.013 2.17,2.941 2.893,4.05 1.325,2.027 1.823,4.547 1.986,7.324 0.084,1.407 -0.081,2.317 -0.208,3.546 -0.022,0.211 -0.021,0.614 0.188,0.681 C 15.862,26.674 15.916,18.919 12.948,13.143 10.777,8.918 8.025,4.807 4.883,1.847 3.96,1.078 2.895,0.149 1.669,-0.051 1.182,-0.13 0.544,-0.154 0,0"/>
        </g>
        <g id="g140" transform="matrix(0.28066512,0,0,0.28066512,49.243275,22.562211)" >
          <path id="path142" d="m 0,0 c 0.525,0.299 1.114,0.493 1.701,0.637 0.724,0.176 1.48,0.237 2.199,0.424 1.331,0.347 2.592,0.916 3.758,1.646 2.611,1.634 4.883,3.864 6.603,6.418 1.11,1.648 1.956,3.497 2.548,5.417 0.267,0.865 0.485,1.392 1.015,1.421 C 16.762,8.953 13.11,2.298 7.63,-2.305 6,-3.673 4.026,-4.936 1.848,-5.128 0.553,-5.242 -1.029,-5.009 -1.504,-3.579 -1.809,-2.66 -1.596,-1.525 -0.977,-0.796 -0.698,-0.468 -0.364,-0.208 0,0"/>
        </g>
        <g id="g144" transform="matrix(0.28066512,0,0,0.28066512,48.045708,20.424889)">
          <path id="path146" d="M 0,0 C 2.672,2.037 4.441,-0.395 8.709,1.275 16.843,4.458 18.517,10.44 19.67,9.919 16.697,3.759 12.048,-2.069 5.646,-4.544 3.588,-5.339 0.719,-5.77 -0.555,-3.857 -1.405,-2.584 -1.351,-1.031 0,0"/>
        </g>
      </g>
      <g id="disk" transform="matrix(0.28066512,0,0,0.28066512,44.244125,19.833109)">
        <path id="path150" d="m 0,0 c 1.475,-1.798 3.648,-2.078 5.612,-1.574 1.843,0.473 4.304,1.85 6.313,4.379 3.168,3.989 4.138,9.009 1.784,11.998 -1.469,1.865 -3.582,2.06 -5.555,1.584 C 6.199,15.913 3.973,14.725 1.849,12.067 -0.743,8.822 -1.563,5.595 -1.156,2.771 -1.012,1.77 -0.692,0.843 0,0"/>
      </g>
      <g id="g152">
        <g id="g154" clip-path="url(#clipPath156)">
          <g id="g160">
            <g id="g162">
              <g id="g164" clip-path="url(#clipPath166)">
                <path id="path176" d="m 234.16,40.829 c 2.418,0.747 2.654,2.503 1.467,5.756 l 0,0 c -2.083,-2.297 -2.376,-4.059 -1.467,-5.756 m 1.997,-0.588 c 1.752,0.295 3.313,2.096 4.689,5.402 l 0,0 c -3.349,-0.91 -4.936,-2.769 -4.689,-5.402 m -4.312,0.659 c 1.977,2.233 1.339,3.678 -1.149,4.702 l 0,0 c -0.883,-1.826 -0.299,-3.306 1.149,-4.702 m -5.385,-1.526 c 0.314,3.185 -0.516,5.152 -4.067,5.8 l 0,0 c 0.155,-3.747 0.738,-5.661 4.067,-5.8 m 2.72,1.063 c 1.196,2.445 0.772,3.843 -2.407,4.721 l 0,0 c -0.273,-3.014 0.095,-4.415 2.407,-4.721 m 8.143,-0.94 c 3.335,0.114 6.141,1.735 8.196,4.947 l 0,0 c -3.388,-0.269 -6.154,-1.863 -8.196,-4.947 m -13.633,-1.32 c -0.082,2.21 -1.589,4.485 -5.868,5.368 l 0,0 c 1.674,-4.328 3.27,-5.975 5.868,-5.368 m 14.841,0.072 c 3.824,-0.617 7.144,0.567 9.924,3.576 l 0,0 c -0.345,0.05 -0.7,0.075 -1.065,0.075 l 0,0 c -2.562,0 -5.589,-1.241 -8.859,-3.651 m -16.414,-2.175 c -1.791,3.332 -4.281,4.632 -9.96,4.755 l 0,0 c 1.793,-2.129 5.575,-4.597 9.96,-4.755 m 16.518,-0.945 c 3.233,-1.493 7.292,-0.83 12.177,1.994 l 0,0 c -2.004,0.673 -3.823,1.009 -5.453,1.01 l 0,0 c -2.812,0 -5.06,-1.002 -6.724,-3.004 m -32.526,0.819 c 7.332,-2.898 9.934,-3.361 14.168,-1.792 l 0,0 c -1.356,1.993 -2.821,3.029 -5.949,3.029 l 0,0 c -1.96,0 -4.571,-0.406 -8.219,-1.237 m 31.173,-3.73 c 2.967,-2.644 6.685,-2.911 11.153,-0.801 l 0,0 c -1.813,1.478 -3.783,2.231 -5.892,2.231 l 0,0 c -1.67,0 -3.426,-0.471 -5.261,-1.43 m -32.15,-3.825 c 8.554,-1.084 13.106,0.383 15.708,4.162 l 0,0 c -1.091,0.218 -2.136,0.319 -3.144,0.319 l 0,0 c -4.454,0 -8.232,-1.968 -12.564,-4.481 m 30.283,1.97 c 1.466,-3.874 4.241,-5.947 8.325,-6.211 l 0,0 c -1.599,4.218 -3.984,6.346 -6.979,6.346 l 0,0 c -0.004,0 -0.008,0 -0.012,0 l 0,0 c -0.433,0 -0.877,-0.046 -1.334,-0.135 M 208.5,20.817 c 7.3,1.005 10.978,3.611 12.596,9.28 l 0,0 c -4.818,-1.325 -8.465,-3.953 -12.596,-9.28 m 6.741,-4.434 c 5.843,2.714 7.874,6.596 7.17,12.532 l 0,0 c -4.547,-4.462 -6.951,-9.176 -7.17,-12.532 m 18.255,0.109 c 1.081,4.745 -0.047,8.932 -3.619,12.372 l 0,0 c -0.987,-3.525 0.218,-7.651 3.619,-12.372 m -1.33,12.317 c 1.309,-5.301 3.563,-8.486 6.758,-9.559 l 0,0 c -0.391,6.33 -2.479,9.572 -6.325,9.572 l 0,0 c -0.143,0 -0.286,-0.004 -0.433,-0.013 m -3.96,-14.178 c 2.683,4.012 2.135,8.804 -0.848,14.013 l 0,0 c -1.627,-5.066 -1.273,-10.071 0.848,-14.013 m -5.36,-0.173 c 3.103,4.381 3.686,8.812 2.001,13.88 l 0,0 c -2.502,-2.981 -3.17,-7.607 -2.001,-13.88" style="fill:url(#linearGradient170);stroke:none" />
              </g>
            </g>
          </g>
        </g>
      </g>
      <g id="g178">
        <g id="g180" clip-path="url(#clipPath182)">
          <g id="g186">
            <g id="g188">
              <g id="g190" clip-path="url(#clipPath192)">
                <path id="path206" d="m 227.648,38.191 c -3.476,-1.415 -5.459,-4.192 -4.427,-6.201 l 0,0 c 1.029,-2.005 4.685,-2.487 8.159,-1.072 l 0,0 c 3.477,1.415 5.459,4.194 4.429,6.199 l 0,0 c -0.631,1.229 -2.246,1.886 -4.2,1.886 l 0,0 c -1.239,0 -2.613,-0.263 -3.961,-0.812" style="fill:url(#radialGradient196);stroke:none" />
              </g>
            </g>
          </g>
        </g>
      </g>
    </g>
  </g>
</svg>