<svg>
  <g id="nz-icon">
    <path d="M 24.052578,0.01821308 C 23.578344,0.49679626 22.440432,1.5016861 20.830518,1.6672899 19.339735,1.8209698 17.944259,1.7613167 16.171869,1.8602669 14.565817,1.9472821 12.342095,2.2083218 11.451654,2.386568 5.18526,3.2897008 6.186356e-6,7.1906445 0,13.561695 0,20.039409 4.4872105,24 11.595312,24 c 1.82035,0 3.246899,-0.221742 4.781784,-0.543844 4.893204,-1.005587 4.904915,-1.789424 4.904921,-1.789424 0,0 -0.513073,-0.199298 -0.513067,-1.754337 l 0,-4.52619 c -0.03713,-0.355779 0.181631,-0.456127 0.574634,-0.456127 l 1.580247,0 0,-1.070146 -9.419908,0 0,1.070146 1.92913,0 c 1.140329,0 1.354503,0.126312 1.354497,4.403386 l 0,2.596418 c -1.177463,0.518582 -2.502092,0.736822 -3.858264,0.736822 -5.4757444,0 -8.2548653,-4.10164 -8.722137,-8.298014 -0.00248,-0.01965 0.00464,-0.04632 0,-0.07018 -0.00371,-0.05894 -0.015944,-0.11509 -0.020523,-0.175434 -0.096704,-1.6589 1.2855324,-2.926935 3.0989243,-2.999916 0.4595358,-0.02032 1.8114798,-0.148065 5.9310547,0.192977 4.6116,0.381744 7.587595,-2.1241505 8.701615,-4.4560156 1.062966,-2.2364288 2.134365,-6.84191433 2.134358,-6.84191433 z M 22.657036,2.2637645 C 21.893465,4.5429991 21.068294,5.3219191 19.250272,5.2636807 18.067393,5.2223067 17.304048,4.9605313 16.151347,4.9128133 17.32417,4.6370316 18.262784,4.5535308 19.660725,4.1409051 20.855982,3.7872307 21.908169,3.2272407 22.657036,2.2637645 z m -8.35273,3.368327 c 1.28298,0.041038 2.814215,0.3885815 3.44781,0.4912144 2.057079,0.3340257 2.96066,-0.019649 3.304151,-0.2105205 -0.528389,1.4455737 -1.251755,1.982401 -2.60638,1.982401 -1.312848,0 -2.476353,-0.1670128 -3.653036,-0.4736711 -1.225428,-0.3199911 -2.845354,-0.7192782 -4.001922,-0.7192782 0.280827,-0.2077135 1.639858,-0.8273509 2.360108,-0.9824287 0.33479,-0.071751 0.721607,-0.1013979 1.149269,-0.087717 z M 9.7893175,7.7372958 c 0.2275765,-0.017461 0.4797485,-0.016392 0.7388155,0 0.775177,0.051254 1.893239,0.2947289 2.380631,0.4210408 2.38742,0.6287543 3.932147,0.7543652 4.966488,0.7543652 0.286242,0 0.535352,-0.00339 0.738817,-0.017544 C 17.766945,9.4867201 17.093181,9.6144415 16.08978,9.860043 15.089477,10.104247 12.883742,10.022144 11.923676,9.93022 10.964376,9.8396954 7.8925854,9.6846126 7.0392784,9.6846126 L 6.8340516,9.6670685 C 7.3424249,8.7503386 8.1962794,7.8595394 9.7893175,7.7372973 z"/>
  </g>
</svg>