<svg>
  <g id="scottish-icon">
    <g id="g4597" transform="matrix(1.25,0,0,-1.25,-108.14544,-22.477484)">
      <g id="g4607" transform="matrix(0.14690419,0,0,0.14535607,-6.7475816,-102.75952)">
        <g id="g4609" clip-path="url(#clipPath4611)">
          <g id="g4615" transform="translate(668.9089,519.0628)">
            <path id="path4617" d="M 0,0 C 3.941,0 5.921,-2.045 5.921,-2.045 L 4.113,-4.866 c 0,0 -1.572,1.422 -3.747,1.422 -3.228,0 -4.543,-2.068 -4.543,-4.348 0,-2.929 2.024,-4.673 4.414,-4.673 1.809,0 3.122,1.118 3.122,1.118 l 0,1.186 -2.175,0 0,3.207 5.512,0 0,-8.698 -3.144,0 0,0.431 c 0,0.321 0.022,0.645 0.022,0.645 l -0.043,0 c 0,0 -1.485,-1.334 -4.047,-1.334 -3.94,0 -7.558,2.95 -7.558,7.987 C -8.074,-3.444 -4.693,0 0,0"/>
          </g>
          <g id="g4619" transform="translate(682.4846,511.8299)">
            <path id="path4621" d="m 0,0 c 1.206,0 1.958,0.667 1.958,1.893 0,1.163 -0.43,1.851 -2.324,1.851 l -1.269,0 L -1.635,0 0,0 z m -5.405,6.975 5.362,0 C 1.528,6.975 2.281,6.867 2.949,6.608 4.694,5.942 5.792,4.37 5.792,2.13 5.792,0.494 5.015,-1.292 3.488,-2.068 l 0,-0.043 c 0,0 0.214,-0.28 0.581,-0.925 l 2.992,-5.383 -4.199,0 -2.733,5.189 -1.764,0 0,-5.189 -3.77,0 0,15.394 z"/>
          </g>
          <g id="g4623" transform="translate(690.4333,518.8045)">
            <path id="path4625" d="m 0,0 9.646,0 0,-3.23 -5.877,0 0,-2.799 4.692,0 0,-3.229 -4.692,0 0,-2.906 6.177,0 0,-3.229 -9.946,0 L 0,0 z"/>
          </g>
          <g id="g4627" transform="translate(701.777,518.806)">
            <path id="path4629" d="m 0,0 9.598,0 0,-3.215 -5.846,0 0,-2.787 4.67,0 0,-3.211 -4.67,0 0,-2.894 6.148,0 0,-3.213 -9.9,0 L 0,0 z"/>
          </g>
          <g id="g4631" transform="translate(713.0193,518.806)">
            <path id="path4633" d="m 0,0 3.793,0 4.24,-7.157 C 8.635,-8.165 9.32,-9.771 9.32,-9.771 l 0.043,0 c 0,0 -0.172,1.649 -0.172,2.614 l 0,7.157 3.75,0 0,-15.32 -3.771,0 -4.264,7.134 c -0.601,1.007 -1.287,2.614 -1.287,2.614 l -0.043,0 c 0,0 0.174,-1.649 0.174,-2.614 l 0,-7.134 -3.75,0 L 0,0 z"/>
          </g>
          <g id="g4635" transform="translate(729.1716,508.2635)">
            <path id="path4637" d="m 0,0 c 0,0 1.736,-1.585 3.664,-1.585 0.772,0 1.608,0.3 1.608,1.221 0,1.821 -6.901,1.757 -6.901,6.47 0,2.83 2.379,4.693 5.424,4.693 3.296,0 4.927,-1.735 4.927,-1.735 L 7.136,6.001 c 0,0 -1.542,1.35 -3.386,1.35 -0.771,0 -1.629,-0.344 -1.629,-1.202 0,-1.927 6.9,-1.585 6.9,-6.427 0,-2.549 -1.949,-4.756 -5.398,-4.756 -3.601,0 -5.594,2.184 -5.594,2.184 L 0,0 z"/>
          </g>
          <g id="g4639" transform="translate(663.3494,526.1888)">
            <path id="path4641" d="m 0,0 c 0,0 1.316,-1.201 2.775,-1.201 0.585,0 1.217,0.227 1.217,0.924 0,1.38 -5.224,1.331 -5.224,4.901 0,2.142 1.801,3.554 4.104,3.554 2.5,0 3.733,-1.315 3.733,-1.315 L 5.403,4.543 c 0,0 -1.169,1.022 -2.563,1.022 -0.583,0 -1.233,-0.259 -1.233,-0.908 0,-1.462 5.225,-1.201 5.225,-4.868 0,-1.931 -1.475,-3.603 -4.089,-3.603 -2.725,0 -4.236,1.655 -4.236,1.655 L 0,0 z"/>
          </g>
          <g id="g4643" transform="translate(676.7629,534.3665)">
            <path id="path4645" d="M 0,0 C 2.872,0 4.347,-1.639 4.347,-1.639 L 3.034,-3.782 c 0,0 -1.3,1.186 -2.905,1.186 -2.224,0 -3.277,-1.639 -3.277,-3.311 0,-1.72 1.136,-3.489 3.277,-3.489 1.754,0 3.083,1.429 3.083,1.429 l 1.46,-2.077 c 0,0 -1.638,-1.947 -4.672,-1.947 -3.635,0 -6.087,2.578 -6.087,6.02 C -6.087,-2.596 -3.491,0 0,0"/>
          </g>
          <g id="g4647" transform="translate(687.3293,524.9705)">
            <path id="path4649" d="M 0,0 C 1.737,0 3.132,1.494 3.132,3.473 3.132,5.372 1.737,6.8 0,6.8 -1.737,6.8 -3.132,5.372 -3.132,3.473 -3.132,1.494 -1.737,0 0,0 M 0,9.396 C 3.503,9.396 6.069,6.8 6.069,3.473 6.069,0.065 3.503,-2.595 0,-2.595 c -3.506,0 -6.068,2.66 -6.068,6.068 0,3.327 2.562,5.923 6.068,5.923"/>
          </g>
          <g id="g4651" transform="translate(696.7264,531.7381)">
            <path id="path4653" d="m 0,0 -3.523,0 0,2.433 9.884,0 0,-2.433 -3.522,0 0,-9.169 L 0,-9.169 0,0 z"/>
          </g>
          <g id="g4655" transform="translate(707.3044,531.7381)">
            <path id="path4657" d="m 0,0 -3.52,0 0,2.433 9.879,0 0,-2.433 -3.519,0 0,-9.169 -2.84,0 L 0,0 z"/>
          </g>
          <path id="path4659" d="m 714.424,534.171 2.84,0 0,-11.602 -2.84,0 0,11.602 z"/>
          <g id="g4661" transform="translate(719.5955,526.1888)">
            <path id="path4663" d="m 0,0 c 0,0 1.312,-1.201 2.773,-1.201 0.586,0 1.215,0.227 1.215,0.924 0,1.38 -5.222,1.331 -5.222,4.901 0,2.142 1.8,3.554 4.105,3.554 2.498,0 3.734,-1.315 3.734,-1.315 L 5.402,4.543 c 0,0 -1.168,1.022 -2.56,1.022 -0.586,0 -1.237,-0.259 -1.237,-0.908 0,-1.462 5.227,-1.201 5.227,-4.868 0,-1.931 -1.478,-3.603 -4.09,-3.603 -2.726,0 -4.236,1.655 -4.236,1.655 L 0,0 z"/>
          </g>
          <g id="g4665" transform="translate(727.283,534.1712)">
            <path id="path4667" d="m 0,0 2.838,0 0,-4.64 4.221,0 0,4.64 2.839,0 0,-11.602 -2.839,0 0,4.543 -4.221,0 0,-4.543 -2.838,0 L 0,0 z"/>
          </g>
          <g id="g4669" transform="translate(700.1603,472.5472)">
            <path id="path4671" d="m 0,0 c -25.199,0 -45.625,20.426 -45.625,45.624 0,25.196 20.426,45.622 45.625,45.622 25.197,0 45.621,-20.426 45.621,-45.622 C 45.621,20.426 25.197,0 0,0 m 54.256,40.229 c 6.812,2.585 11.037,5.393 11.037,5.393 0,0 -4.16,2.764 -10.879,5.334 6.094,3.826 9.637,7.346 9.637,7.346 0,0 -4.641,1.914 -11.764,3.129 5.258,4.958 8.059,9.124 8.059,9.124 0,0 -4.899,0.967 -12.092,0.776 4.172,5.862 6.101,10.467 6.101,10.467 0,0 -5.072,-0.003 -12.177,-1.625 2.99,6.647 3.99,11.619 3.99,11.619 0,0 -4.895,-0.986 -11.463,-3.92 1.603,7.013 1.619,12.007 1.619,12.007 0,0 -4.635,-1.928 -10.531,-6.106 0.211,7.224 -0.752,12.151 -0.752,12.151 0,0 -4.147,-2.78 -9.098,-8.001 -1.197,7.095 -3.088,11.716 -3.088,11.716 0,0 -3.586,-3.589 -7.461,-9.76 -2.588,6.814 -5.396,11.038 -5.396,11.038 0,0 -2.765,-4.159 -5.335,-10.879 -3.825,6.093 -7.344,9.635 -7.344,9.635 0,0 -1.915,-4.64 -3.13,-11.763 -4.959,5.257 -9.124,8.059 -9.124,8.059 0,0 -0.967,-4.9 -0.775,-12.092 -5.863,4.171 -10.469,6.102 -10.469,6.102 0,0 0.003,-5.072 1.625,-12.177 -6.647,2.989 -11.618,3.99 -11.618,3.99 0,0 0.985,-4.895 3.92,-11.464 -7.014,1.604 -12.007,1.62 -12.007,1.62 0,0 1.927,-4.635 6.105,-10.531 -7.223,0.211 -12.149,-0.752 -12.149,-0.752 0,0 2.78,-4.148 8.001,-9.099 -7.095,-1.196 -11.717,-3.088 -11.717,-3.088 0,0 3.588,-3.584 9.758,-7.461 -6.813,-2.587 -11.037,-5.395 -11.037,-5.395 0,0 4.159,-2.765 10.88,-5.334 -6.095,-3.825 -9.638,-7.345 -9.638,-7.345 0,0 4.642,-1.915 11.765,-3.13 -5.257,-4.959 -8.058,-9.122 -8.058,-9.122 0,0 4.898,-0.969 12.091,-0.776 -4.171,-5.864 -6.101,-10.469 -6.101,-10.469 0,0 5.071,0.002 12.176,1.624 -2.99,-6.647 -3.989,-11.616 -3.989,-11.616 0,0 4.895,0.984 11.464,3.919 -1.604,-7.015 -1.62,-12.007 -1.62,-12.007 0,0 4.635,1.926 10.532,6.105 -0.212,-7.224 0.751,-12.15 0.751,-12.15 0,0 4.149,2.781 9.1,8.001 1.195,-7.095 3.087,-11.717 3.087,-11.717 0,0 3.584,3.589 7.461,9.759 2.587,-6.813 5.395,-11.036 5.395,-11.036 0,0 2.763,4.158 5.334,10.879 3.826,-6.094 7.345,-9.637 7.345,-9.637 0,0 1.914,4.641 3.129,11.764 4.959,-5.256 9.125,-8.058 9.125,-8.058 0,0 0.967,4.898 0.777,12.089 5.86,-4.171 10.466,-6.101 10.466,-6.101 0,0 -0.002,5.071 -1.624,12.179 6.647,-2.99 11.618,-3.989 11.618,-3.989 0,0 -0.985,4.893 -3.92,11.461 7.014,-1.603 12.006,-1.62 12.006,-1.62 0,0 -1.926,4.635 -6.106,10.533 7.225,-0.211 12.151,0.752 12.151,0.752 0,0 -2.78,4.147 -8,9.098 7.095,1.195 11.716,3.088 11.716,3.088 0,0 -3.587,3.585 -9.759,7.463"/>
          </g>
        </g>
      </g>
    </g>
  </g>
</svg>